<mxfile host="app.diagrams.net" agent="Mozilla/5.0 (Macintosh; Intel Mac OS X 10_15_7) AppleWebKit/537.36 (KHTML, like Gecko) Chrome/127.0.0.0 Safari/537.36" version="24.7.7">
  <diagram name="Page-1" id="Lfu0iz-fDRFp6WcHVcJF">
    <mxGraphModel dx="1026" dy="650" grid="1" gridSize="10" guides="1" tooltips="1" connect="1" arrows="1" fold="1" page="1" pageScale="1" pageWidth="827" pageHeight="1169" math="0" shadow="0">
      <root>
        <mxCell id="0" />
        <mxCell id="1" parent="0" />
        <mxCell id="b2WiK5f2kYW0mS37gWQT-1" value="" style="shape=image;verticalLabelPosition=bottom;labelBackgroundColor=default;verticalAlign=top;aspect=fixed;imageAspect=0;image=data:image/svg+xml,PHN2ZyB4bWxuczp4bGluaz0iaHR0cDovL3d3dy53My5vcmcvMTk5OS94bGluayIgeG1sbnM9Imh0dHA6Ly93d3cudzMub3JnLzIwMDAvc3ZnIiB2ZXJzaW9uPSIxLjEiIHZpZXdCb3g9IjAgMCA0MCA0MCIgaGVpZ2h0PSI0MHB4IiB3aWR0aD0iNDBweCI+JiN4YTsgICAgPHRpdGxlPkljb24tQXJjaGl0ZWN0dXJlLUdyb3VwLzMyL0FXUy1DbG91ZC1sb2dvXzMyPC90aXRsZT4mI3hhOyAgICA8ZyBmaWxsLXJ1bGU9ImV2ZW5vZGQiIGZpbGw9Im5vbmUiIHN0cm9rZS13aWR0aD0iMSIgc3Ryb2tlPSJub25lIiBpZD0iSWNvbi1BcmNoaXRlY3R1cmUtR3JvdXAvMzIvQVdTLUNsb3VkLWxvZ29fMzIiPiYjeGE7ICAgICAgICA8cmVjdCBoZWlnaHQ9IjQwIiB3aWR0aD0iNDAiIHk9IjAiIHg9IjAiIGZpbGw9IiMyNDJGM0UiIGlkPSJSZWN0YW5nbGUiLz4mI3hhOyAgICAgICAgPHBhdGggZmlsbD0iI0ZGRkZGRiIgaWQ9IkZpbGwtMSIgZD0iTTMyLjY5ODIsMjMuOTAwOCBDMzMuMDU5MiwyNC4zNjk4IDMyLjI5ODIsMjYuMjk5OCAzMS45NTcyLDI3LjE2MzggQzMxLjg1MzIsMjcuNDI1OCAzMi4wNzUyLDI3LjUyODggMzIuMzA3MiwyNy4zMzE4IEMzMy44MjAyLDI2LjA0NzggMzQuMjEyMiwyMy4zNTY4IDMzLjkwMTIsMjIuOTY4OCBDMzMuNTk0MiwyMi41ODI4IDMwLjk1MDIsMjIuMjUxOCAyOS4zMzgyLDIzLjQwMDggQzI5LjA4OTIsMjMuNTc3OCAyOS4xMzIyLDIzLjgyMTggMjkuNDA3MiwyMy43ODk4IEMzMC4zMTUyLDIzLjY3NzggMzIuMzM4MiwyMy40MzI4IDMyLjY5ODIsMjMuOTAwOCBMMzIuNjk4MiwyMy45MDA4IFogTTMxLjg1NjIsMjUuOTA5OCBDMzIuMzc0MiwyNS41MzE4IDMxLjkzMDIsMjQuOTY4OCAzMS40MDIyLDI1LjE4OTggQzI3Ljg4OTIsMjYuNjUzOCAyNC4wNzUyLDI3LjM2MjggMjAuNjAyMiwyNy4zNjI4IEMxNS40NTkyLDI3LjM2MjggMTAuNDc1MiwyNS45NzM4IDYuNDQ2MiwyMy42Njc4IEM2LjA5NDIsMjMuNDY1OCA1LjgzMzIsMjMuODIyOCA2LjEyNzIsMjQuMDgxOCBDOS44NjAyLDI3LjM5NzggMTQuNzk2MiwyOS4zOTA4IDIwLjI3NDIsMjkuMzkwOCBDMjQuMTg0MiwyOS4zOTA4IDI4LjcyNTIsMjguMTgyOCAzMS44NTYyLDI1LjkwOTggTDMxLjg1NjIsMjUuOTA5OCBaIE0yOS43MTIyLDIwLjY5NDggQzI5LjIxNDIsMjAuNjk0OCAyOC43MjcyLDIwLjY0MTggMjguMjUzMiwyMC41MzM4IEMyNy43NzcyLDIwLjQyNDggMjcuNDEzMiwyMC4zMDE4IDI3LjE2MDIsMjAuMTYwOCBDMjcuMDA1MiwyMC4wNzY4IDI2LjkwODIsMTkuOTg4OCAyNi44NjkyLDE5LjkwMjggQzI2LjgzMTIsMTkuODE0OCAyNi44MTEyLDE5LjcyODggMjYuODExMiwxOS42NDI4IEwyNi44MTEyLDE5LjE3MzggQzI2LjgxMTIsMTguOTc5OCAyNi44ODQyLDE4Ljg4MDggMjcuMDI3MiwxOC44ODA4IEMyNy4wODIyLDE4Ljg4MDggMjcuMTQwMiwxOC44OTM4IDI3LjIwMDIsMTguOTEzOCBDMjcuMjYxMiwxOC45MzY4IDI3LjM0MTIsMTguOTY4OCAyNy40NDEyLDE5LjAxMTggQzI3Ljc2MTIsMTkuMTUyOCAyOC4xMDgyLDE5LjI1OTggMjguNDg1MiwxOS4zMzU4IEMyOC44NjEyLDE5LjQxMDggMjkuMjM2MiwxOS40NDg4IDI5LjYxMTIsMTkuNDQ4OCBDMzAuMjA4MiwxOS40NDg4IDMwLjY2OTIsMTkuMzQ2OCAzMC45OTUyLDE5LjE0MDggQzMxLjMyMjIsMTguOTM2OCAzMS40ODQyLDE4LjY0NTggMzEuNDg0MiwxOC4yNjc4IEMzMS40ODQyLDE4LjAwNzggMzEuMzk5MiwxNy43OTI4IDMxLjIyNzIsMTcuNjE4OCBDMzEuMDU2MiwxNy40NDQ4IDMwLjczODIsMTcuMjg1OCAzMC4yNzUyLDE3LjEzMzggTDI4LjkwMDIsMTYuNzEyOCBDMjguMjAzMiwxNi40OTY4IDI3LjY5ODIsMTYuMTgzOCAyNy4zODMyLDE1Ljc3NDggQzI3LjA2ODIsMTUuMzYyOCAyNi45MTEyLDE0LjkxNTggMjYuOTExMiwxNC40Mjc4IEMyNi45MTEyLDE0LjA0MDggMjYuOTk2MiwxMy42OTg4IDI3LjE2OTIsMTMuNDAwOCBDMjcuMzM5MiwxMy4xMDM4IDI3LjU2NDIsMTIuODUwOCAyNy44NDUyLDEyLjYzOTggQzI4LjEzMDIsMTIuNDI5OCAyOC40NTkyLDEyLjI3MTggMjguODM0MiwxMi4xNjE4IEMyOS4yMDgyLDEyLjA1NDggMjkuNjA2MiwxMS45OTk4IDMwLjAyNjIsMTEuOTk5OCBDMzAuMjM2MiwxMS45OTk4IDMwLjQ0OTIsMTIuMDEzOCAzMC42NjYyLDEyLjA0MDggQzMwLjg4MTIsMTIuMDY2OCAzMS4wODUyLDEyLjEwMjggMzEuMjc4MiwxMi4xNDU4IEMzMS40NzEyLDEyLjE5MDggMzEuNjUxMiwxMi4yMzg4IDMxLjgxNjIsMTIuMjkxOCBDMzEuOTgyMiwxMi4zNDY4IDMyLjExNDIsMTIuNDAwOCAzMi4yMTUyLDEyLjQ1MzggQzMyLjM0NjIsMTIuNTI4OCAzMi40MzkyLDEyLjYwNDggMzIuNDk2MiwxMi42ODA4IEMzMi41NTEyLDEyLjc1NTggMzIuNTc5MiwxMi44NTc4IDMyLjU3OTIsMTIuOTg4OCBMMzIuNTc5MiwxMy40MjQ4IEMzMi41NzkyLDEzLjYxOTggMzIuNTA3MiwxMy43MTU4IDMyLjM2MjIsMTMuNzE1OCBDMzIuMjg1MiwxMy43MTU4IDMyLjE2NTIsMTMuNjc5OCAzMS45OTgyLDEzLjYwMzggQzMxLjQ1ODIsMTMuMzY0OCAzMC44NDgyLDEzLjI0NzggMzAuMTc3MiwxMy4yNDc4IEMyOS42MzUyLDEzLjI0NzggMjkuMjE0MiwxMy4zMzM4IDI4LjkxNjIsMTMuNTA1OCBDMjguNjE3MiwxMy42Nzk4IDI4LjQ2ODIsMTMuOTU0OCAyOC40NjgyLDE0LjMzMjggQzI4LjQ2ODIsMTQuNTkwOCAyOC41NjIyLDE0LjgwOTggMjguNzUxMiwxNC45ODc4IEMyOC45MzkyLDE1LjE2NTggMjkuMjg2MiwxNS4zMzU4IDI5Ljc5NTIsMTUuNDk4OCBMMzEuMTM3MiwxNS45MjA4IEMzMS44MjIyLDE2LjEzNDggMzIuMzExMiwxNi40MzI4IDMyLjYwMzIsMTYuODA4OCBDMzIuODk3MiwxNy4xODc4IDMzLjA0NDIsMTcuNjE4OCAzMy4wNDQyLDE4LjEwMzggQzMzLjA0NDIsMTguNTA0OCAzMi45NjEyLDE4Ljg2MzggMzIuNzk0MiwxOS4xODE4IEMzMi42MjgyLDE5LjUwMDggMzIuMzk5MiwxOS43NzE4IDMyLjEwNTIsMTkuOTk4OCBDMzEuODEzMiwyMC4yMjU4IDMxLjQ2MzIsMjAuMzk3OCAzMS4wNTQyLDIwLjUxNjggQzMwLjY0NDIsMjAuNjM2OCAzMC4xOTcyLDIwLjY5NDggMjkuNzEyMiwyMC42OTQ4IEwyOS43MTIyLDIwLjY5NDggWiBNMTcuNTQ3MiwyMC40NTA4IEMxNy4zODEyLDIwLjQ1MDggMTcuMjYwMiwyMC40MjM4IDE3LjE4MjIsMjAuMzYzOCBDMTcuMTA0MiwyMC4zMDI4IDE3LjAzODIsMjAuMTgyOCAxNi45ODMyLDE5Ljk5ODggTDE0Ljc2MTIsMTIuODQxOCBDMTQuNzA4MiwxMi42NTc4IDE0LjY3OTIsMTIuNTM0OCAxNC42NzkyLDEyLjQ3MDggQzE0LjY3OTIsMTIuMzE5OCAxNC43NTcyLDEyLjI0MzggMTQuOTEyMiwxMi4yNDM4IEwxNS44MzkyLDEyLjI0MzggQzE2LjAxNjIsMTIuMjQzOCAxNi4xNDAyLDEyLjI3MzggMTYuMjEzMiwxMi4zMzM4IEMxNi4yODQyLDEyLjM5MTggMTYuMzQ3MiwxMi41MTE4IDE2LjQwMjIsMTIuNjk3OCBMMTcuOTkzMiwxOC44MTc4IEwxOS40NzAyLDEyLjY5NzggQzE5LjUxNDIsMTIuNTExOCAxOS41NzQyLDEyLjM5MTggMTkuNjUxMiwxMi4zMzM4IEMxOS43MjgyLDEyLjI3MzggMTkuODU1MiwxMi4yNDM4IDIwLjAzMTIsMTIuMjQzOCBMMjAuNzk2MiwxMi4yNDM4IEMyMC45NzEyLDEyLjI0MzggMjEuMDk4MiwxMi4yNzM4IDIxLjE3NjIsMTIuMzMzOCBDMjEuMjUzMiwxMi4zOTE4IDIxLjMxNDIsMTIuNTExOCAyMS4zNTgyLDEyLjY5NzggTDIyLjg1MTIsMTguODk4OCBMMjQuNDkxMiwxMi42OTc4IEMyNC41NDYyLDEyLjUxMTggMjQuNjA5MiwxMi4zOTE4IDI0LjY4MTIsMTIuMzMzOCBDMjQuNzU0MiwxMi4yNzM4IDI0Ljg3NzIsMTIuMjQzOCAyNS4wNTQyLDEyLjI0MzggTDI1LjkzMjIsMTIuMjQzOCBDMjYuMDg4MiwxMi4yNDM4IDI2LjE2NTIsMTIuMzE5OCAyNi4xNjUyLDEyLjQ3MDggQzI2LjE2NTIsMTIuNTExOCAyNi4xNTgyLDEyLjU2MTggMjYuMTQ5MiwxMi42MTQ4IEMyNi4xMzYyLDEyLjY3MDggMjYuMTE2MiwxMi43NDU4IDI2LjA4MTIsMTIuODQxOCBMMjMuNzk1MiwxOS45OTg4IEMyMy43NDAyLDIwLjE4MjggMjMuNjczMiwyMC4zMDI4IDIzLjU5NTIsMjAuMzYzOCBDMjMuNTE4MiwyMC40MjM4IDIzLjM5NjIsMjAuNDUwOCAyMy4yMzEyLDIwLjQ1MDggTDIyLjQxODIsMjAuNDUwOCBDMjIuMjQyMiwyMC40NTA4IDIyLjExNTIsMjAuNDIwOCAyMi4wMzgyLDIwLjM1NjggQzIxLjk2MTIsMjAuMjkxOCAyMS45MDAyLDIwLjE2NTggMjEuODU2MiwxOS45ODM4IEwyMC4zODAyLDE0LjAyMzggTDE4LjkyMzIsMTkuOTgzOCBDMTguODc5MiwyMC4xNjU4IDE4LjgxNzIsMjAuMjkxOCAxOC43NDAyLDIwLjM1NjggQzE4LjY2MjIsMjAuNDIwOCAxOC41MzYyLDIwLjQ1MDggMTguMzU5MiwyMC40NTA4IEwxNy41NDcyLDIwLjQ1MDggWiBNOS45MzkyLDE5LjQ0ODggQzEwLjI1MDIsMTkuNDQ4OCAxMC41NzUyLDE5LjM5MTggMTAuOTE4MiwxOS4yNzg4IEMxMS4yNjAyLDE5LjE2NDggMTEuNTU4MiwxOC45Njg4IDExLjgxMjIsMTguNjg2OCBDMTEuOTY4MiwxOC41MTQ4IDEyLjA3NDIsMTguMzE3OCAxMi4xMzYyLDE4LjA5NTggQzEyLjE5NjIsMTcuODc1OCAxMi4yMjUyLDE3LjYwODggMTIuMjI1MiwxNy4yOTQ4IEwxMi4yMjUyLDE2LjkwNjggQzExLjk1MTIsMTYuODQxOCAxMS42NjEyLDE2Ljc5MDggMTEuMzU2MiwxNi43NTI4IEMxMS4wNTIyLDE2LjcxNTggMTAuNzU3MiwxNi42OTU4IDEwLjQ2OTIsMTYuNjk1OCBDOS44NDAyLDE2LjY5NTggOS4zNjkyLDE2LjgxOTggOS4wNjEyLDE3LjA2ODggQzguNzUyMiwxNy4zMTY4IDguNTk2MiwxNy42NzE4IDguNTk2MiwxOC4xMzg4IEM4LjU5NjIsMTguNTY5OCA4LjcxMzIsMTguODk0OCA4Ljk0NTIsMTkuMTE2OCBDOS4xNzcyLDE5LjMzODggOS41MDkyLDE5LjQ0ODggOS45MzkyLDE5LjQ0ODggTDkuOTM5MiwxOS40NDg4IFogTTEzLjc4NTIsMTguMDQwOCBDMTMuNzg1MiwxOC4zODU4IDEzLjgyMDIsMTguNjU5OCAxMy44OTIyLDE4Ljg2NTggQzEzLjk2NTIsMTkuMDcxOCAxNC4wNjcyLDE5LjI5MzggMTQuMTk5MiwxOS41Mjk4IEMxNC4yNDMyLDE5LjYwNTggMTQuMjY1MiwxOS42NzU4IDE0LjI2NTIsMTkuNzM4OCBDMTQuMjY1MiwxOS44Mzc4IDE0LjIwNDIsMTkuOTI5OCAxNC4wODMyLDIwLjAxNDggTDEzLjQ4NjIsMjAuNDA0OCBDMTMuMzk4MiwyMC40NTc4IDEzLjMxNTIsMjAuNDg1OCAxMy4yMzgyLDIwLjQ4NTggQzEzLjEzNzIsMjAuNDg1OCAxMy4wNDQyLDIwLjQ0MjggMTIuOTU2MiwyMC4zNTY4IEMxMi44MjIyLDIwLjIyNTggMTIuNzEwMiwyMC4wODM4IDEyLjYxNzIsMTkuOTI2OCBDMTIuNTIxMiwxOS43NzA4IDEyLjQyNTIsMTkuNTg3OCAxMi4zMjYyLDE5LjM4MjggQzExLjU4NTIsMjAuMjM1OCAxMC42NTgyLDIwLjY2MjggOS41NDIyLDIwLjY2MjggQzguNzQ2MiwyMC42NjI4IDguMTE2MiwyMC40NDI4IDcuNjUxMiwxOS45OTg4IEM3LjE4ODIsMTkuNTU2OCA2Ljk1NjIsMTguOTYyOCA2Ljk1NjIsMTguMjE4OCBDNi45NTYyLDE3LjQzMTggNy4yNDMyLDE2Ljc5NTggNy44MTkyLDE2LjMxNTggQzguMzkyMiwxNS44MzU4IDkuMTY3MiwxNS41OTQ4IDEwLjEzODIsMTUuNTk0OCBDMTAuNDU5MiwxNS41OTQ4IDEwLjc5MzIsMTUuNjE5OCAxMS4xNDEyLDE1LjY2NzggQzExLjQ4ODIsMTUuNzE1OCAxMS44NTEyLDE1Ljc4NDggMTIuMjI1MiwxNS44NzA4IEwxMi4yMjUyLDE1LjE5MTggQzEyLjIyNTIsMTQuNDg5OCAxMi4wNzgyLDEzLjk5NTggMTEuNzc5MiwxMy43MDg4IEMxMS40ODEyLDEzLjQyMjggMTAuOTY4MiwxMy4yODA4IDEwLjIzOTIsMTMuMjgwOCBDOS45MDYyLDEzLjI4MDggOS41NjYyLDEzLjMxOTggOS4yMTgyLDEzLjQwMDggQzguODcxMiwxMy40ODE4IDguNTMwMiwxMy41ODY4IDguMTk5MiwxMy43MTU4IEM4LjA0NDIsMTMuNzgwOCA3LjkzMzIsMTMuODIxOCA3Ljg2ODIsMTMuODM3OCBDNy44MDIyLDEzLjg1MzggNy43NTIyLDEzLjg2MTggNy43MTkyLDEzLjg2MTggQzcuNTg3MiwxMy44NjE4IDcuNTE5MiwxMy43NjU4IDcuNTE5MiwxMy41Njk4IEw3LjUxOTIsMTMuMTE3OCBDNy41MTkyLDEyLjk2NTggNy41NDMyLDEyLjg1NzggNy41ODcyLDEyLjc5NDggQzcuNjMxMiwxMi43Mjg4IDcuNzE5MiwxMi42NjM4IDcuODUyMiwxMi41OTk4IEM4LjE4MzIsMTIuNDM2OCA4LjU4MTIsMTIuMjk2OCA5LjA0NDIsMTIuMTc4OCBDOS41MDkyLDEyLjA1OTggMTAuMDAwMiwxMS45OTk4IDEwLjUyMDIsMTEuOTk5OCBDMTEuNjQ2MiwxMS45OTk4IDEyLjQ3MjIsMTIuMjUyOCAxMi45OTcyLDEyLjc1MjggQzEzLjUyMTIsMTMuMjU0OCAxMy43ODUyLDE0LjAxMjggMTMuNzg1MiwxNS4wMjc4IEwxMy43ODUyLDE4LjA0MDggWiIvPiYjeGE7ICAgIDwvZz4mI3hhOzwvc3ZnPg==;" vertex="1" parent="1">
          <mxGeometry x="120" y="80" width="40" height="40" as="geometry" />
        </mxCell>
      </root>
    </mxGraphModel>
  </diagram>
</mxfile>
